<?xml version="1.0" standalone="no"?>
<!DOCTYPE svg PUBLIC "-//W3C//DTD SVG 20010904//EN"
 "http://www.w3.org/TR/2001/REC-SVG-20010904/DTD/svg10.dtd">
<svg version="1.0" xmlns="http://www.w3.org/2000/svg"
 width="87.000000pt" height="87.000000pt" viewBox="0 0 87.000000 87.000000"
 preserveAspectRatio="xMidYMid meet">
<metadata>
Created by potrace 1.14, written by Peter Selinger 2001-2017
</metadata>
<g transform="translate(0.000000,87.000000) scale(0.100000,-0.100000)"
fill="#000000" stroke="none">
<path d="M0 435 l0 -435 435 0 435 0 0 435 0 435 -435 0 -435 0 0 -435z m581
277 c93 -48 159 -165 159 -279 0 -117 -76 -244 -175 -289 -47 -22 -62 -24
-237 -24 -161 0 -188 2 -188 15 0 12 13 15 55 15 l55 0 0 279 0 280 -52 3
c-30 2 -53 8 -56 16 -3 9 40 12 191 12 194 0 195 0 248 -28z"/>
<path d="M362 702 c-9 -6 -12 -68 -10 -273 l3 -264 75 -3 c95 -4 131 13 162
77 21 42 23 60 23 196 0 132 -2 155 -21 189 -31 61 -59 77 -145 82 -41 3 -80
1 -87 -4z"/>
</g>
</svg>
